<?xml version="1.0" standalone="no"?>
<!DOCTYPE svg PUBLIC "-//W3C//DTD SVG 20010904//EN"
 "http://www.w3.org/TR/2001/REC-SVG-20010904/DTD/svg10.dtd">
<svg version="1.0" xmlns="http://www.w3.org/2000/svg"
 width="256.000000pt" height="256.000000pt" viewBox="0 0 256.000000 256.000000"
 preserveAspectRatio="xMidYMid meet">
<metadata>
Created by potrace 1.11, written by Peter Selinger 2001-2013
</metadata>
<g transform="translate(0.000000,256.000000) scale(0.100000,-0.100000)"
fill="#000000" stroke="none">
<path d="M1575 2317 c-79 -27 -122 -47 -181 -88 -23 -16 -44 -25 -48 -22 -3 4
-6 1 -6 -6 0 -7 -4 -10 -9 -6 -6 3 -14 -3 -20 -12 -6 -10 -11 -14 -11 -10 0 5
-7 1 -16 -7 -11 -12 -37 -16 -102 -17 -107 -1 -122 -2 -221 -28 -122 -32 -193
-61 -223 -93 -14 -15 -29 -28 -33 -28 -18 0 -95 -73 -124 -117 -26 -39 -32
-57 -30 -93 1 -25 6 -52 10 -60 4 -9 10 -43 13 -78 l5 -62 -52 -14 c-229 -64
-274 -80 -312 -106 -94 -64 -169 -184 -198 -312 -54 -243 58 -541 257 -684 34
-24 66 -48 73 -54 7 -5 17 -10 23 -10 5 0 10 -5 10 -11 0 -6 -7 -8 -16 -5 -10
4 -14 2 -11 -6 4 -13 8 -13 37 -5 8 2 12 2 8 0 -5 -3 -8 -12 -8 -21 0 -10 -3
-13 -8 -7 -8 12 -57 13 -69 2 -3 -4 2 -7 13 -6 39 4 55 -1 48 -13 -6 -10 -4
-10 8 0 10 8 19 9 22 3 3 -5 0 -12 -6 -15 -7 -3 -2 -3 11 0 13 3 21 2 18 -2
-3 -5 12 -10 34 -10 21 -1 39 3 39 8 0 5 -5 6 -12 2 -7 -4 -8 -3 -4 4 11 18
20 15 31 -10 6 -11 21 -28 35 -36 23 -13 23 -13 7 1 -10 8 -19 19 -20 24 -1 4
-5 7 -9 6 -4 -2 -5 4 -1 13 5 15 7 15 15 0 8 -14 12 -15 26 -4 9 7 13 8 9 2
-4 -7 0 -14 7 -17 10 -4 14 0 11 13 -2 11 0 22 4 25 5 2 8 -3 8 -13 0 -34 3
-43 12 -38 5 3 8 14 6 24 -1 9 0 11 2 4 3 -6 9 -12 15 -12 6 0 5 -7 -3 -17
-13 -15 -12 -15 8 -3 12 8 19 19 16 25 -4 5 -3 7 2 3 4 -4 13 -3 20 2 8 7 12
5 12 -5 0 -8 -5 -11 -10 -8 -6 4 -7 1 -2 -6 9 -16 25 -1 28 26 0 11 7 20 14
20 10 0 10 -4 3 -11 -12 -12 -13 -26 -2 -26 5 0 14 10 20 23 6 12 11 16 11 9
1 -7 6 -10 13 -6 7 4 8 3 4 -5 -4 -6 -12 -9 -17 -6 -5 4 -9 2 -9 -2 0 -14 38
-34 45 -23 4 6 3 9 -2 8 -4 -2 -8 2 -8 7 0 6 3 9 7 8 4 -2 5 3 2 11 -3 7 3 19
13 27 16 13 17 12 4 -3 -7 -10 -12 -19 -10 -19 13 -5 49 -5 45 -1 -8 7 57 61
66 56 13 -8 -2 -25 -15 -18 -7 4 -8 3 -4 -1 25 -29 47 3 23 35 -6 8 -1 7 11
-4 13 -10 20 -23 16 -29 -3 -6 -1 -7 6 -3 6 4 9 12 6 17 -4 5 -1 9 4 9 6 0 10
3 10 7 -3 20 2 24 15 14 10 -8 16 -9 21 -1 3 5 1 10 -4 10 -6 0 -11 4 -11 8 0
5 6 9 14 9 15 0 16 -14 3 -35 -5 -7 -14 -9 -20 -6 -7 4 -7 1 1 -7 11 -12 15
-11 23 3 5 9 16 15 23 12 15 -6 29 22 19 38 -3 7 -1 8 5 4 7 -4 12 -2 12 4 0
6 4 9 9 5 5 -3 17 2 25 11 9 9 16 11 16 4 0 -6 5 -8 10 -5 6 4 8 10 6 14 -3 4
1 8 9 8 8 0 12 -4 9 -9 -9 -14 8 -8 20 7 17 23 54 27 65 7 8 -13 9 -9 6 17 -2
18 -1 31 2 27 3 -3 21 1 40 9 42 18 43 18 43 4 0 -5 -5 -7 -12 -3 -7 5 -8 3
-3 -6 5 -8 4 -11 -3 -6 -15 9 -65 -12 -57 -24 3 -5 12 -10 18 -10 7 0 6 4 -3
10 -12 8 -11 10 8 11 21 1 33 4 50 9 4 1 10 2 13 2 3 -1 5 10 3 24 -1 14 1 23
4 19 4 -4 7 -11 7 -16 0 -5 3 -9 8 -9 4 0 9 0 12 0 3 0 1 10 -6 21 -8 17 -8
20 1 14 7 -4 17 -1 22 6 6 10 7 7 3 -11 -6 -24 -6 -24 7 -4 11 19 15 20 26 8
7 -8 10 -20 6 -27 -5 -9 -4 -9 5 -1 10 9 9 18 -6 40 -10 16 -13 25 -6 21 6 -4
19 1 29 10 17 17 18 17 11 0 -4 -10 -7 -21 -7 -23 0 -3 -5 -2 -12 2 -7 4 -8 3
-4 -5 6 -9 11 -9 21 -1 7 6 23 13 35 15 13 2 25 7 29 10 3 4 -7 4 -22 1 -17
-3 -25 -1 -21 6 3 5 20 8 36 6 21 -4 33 1 43 15 8 11 12 24 9 29 -3 4 2 5 10
2 10 -4 16 -1 16 7 0 7 3 9 7 6 3 -4 -2 -17 -13 -29 -19 -23 -19 -23 2 -5 11
9 24 14 27 10 10 -10 8 6 -3 28 -17 31 -4 22 19 -13 17 -27 20 -29 18 -11 0
12 -6 19 -12 16 -5 -4 -7 -3 -3 2 4 4 2 15 -5 24 -11 14 -10 15 7 1 18 -14 19
-13 13 5 -6 16 -3 15 13 -5 17 -22 25 -21 21 3 -1 4 7 4 16 -1 10 -5 24 -7 31
-5 6 3 12 0 12 -5 0 -6 -11 -9 -25 -7 -14 1 -28 -2 -31 -7 -3 -4 -10 -6 -15
-3 -5 4 -9 1 -9 -4 0 -14 17 -14 25 -1 9 14 27 2 19 -13 -3 -7 2 -3 10 7 12
15 16 16 16 5 0 -12 2 -12 9 0 5 7 14 10 20 6 9 -5 7 -11 -6 -22 -16 -13 -15
-13 7 -1 32 16 42 17 58 5 8 -7 18 -4 30 7 10 9 22 13 25 9 4 -3 7 2 8 13 0
13 2 14 6 5 3 -8 -4 -21 -16 -30 -21 -16 -21 -16 18 -16 22 0 37 3 35 7 -2 4
5 6 16 5 11 -1 20 -8 21 -17 0 -11 2 -10 8 3 7 20 19 20 38 1 7 -6 26 -10 43
-8 21 3 29 0 24 -8 -4 -6 -3 -8 3 -5 6 4 9 18 8 31 -3 20 1 24 17 21 12 -3 23
-7 27 -11 3 -3 -3 -4 -13 -2 -10 1 -21 -3 -23 -9 -3 -9 7 -13 31 -13 20 0 36
-5 36 -11 0 -5 5 -7 10 -4 6 4 8 12 4 18 -3 7 4 1 16 -12 l21 -25 -6 30 -6 29
16 -27 c9 -16 18 -28 21 -28 3 0 2 4 -1 10 -3 5 -3 10 2 11 4 0 17 3 28 5 11
3 29 6 40 7 22 2 27 24 11 47 -10 13 -9 13 7 1 16 -13 22 -8 17 14 -1 6 4 5
11 -2 6 -6 18 -9 27 -6 10 5 13 2 8 -6 -5 -7 -15 -10 -23 -7 -8 3 -12 2 -9 -3
3 -5 17 -9 32 -8 14 0 21 3 15 7 -9 5 -8 10 4 20 8 7 15 19 15 26 0 8 5 14 11
14 6 0 8 -7 5 -16 -3 -8 -2 -12 4 -9 6 3 10 1 10 -6 0 -7 3 -10 6 -7 3 4 1 15
-5 27 -9 16 -7 24 13 44 33 33 39 98 40 467 1 342 -6 465 -29 527 -16 42 -66
90 -118 114 -30 13 -37 33 -25 68 11 30 -10 64 -52 86 -17 9 -37 32 -48 58
-18 39 -90 115 -112 118 -6 1 -13 2 -17 3 -5 2 -29 6 -55 10 -28 5 -55 17 -69
32 -25 27 -87 39 -259 49 -72 5 -96 2 -155 -18z m840 -1566 c3 -5 2 -12 -3
-15 -5 -3 -9 1 -9 9 0 17 3 19 12 6z m-635 -26 c4 3 13 -2 19 -9 9 -11 9 -14
-1 -12 -21 3 -38 16 -37 29 0 9 2 8 6 -1 2 -6 8 -10 13 -7z m77 -15 c-6 -11
-15 -20 -18 -20 -13 0 -18 29 -7 36 7 5 8 2 3 -6 -5 -8 -3 -11 6 -8 8 3 13 11
11 17 -1 7 2 10 8 6 6 -4 5 -13 -3 -25z m71 -2 c-3 -14 -18 -28 -30 -28 -4 0
0 9 9 20 20 23 24 25 21 8z m82 2 c0 -5 -5 -10 -11 -10 -5 0 -7 5 -4 10 3 6 8
10 11 10 2 0 4 -4 4 -10z m-30 -10 c0 -4 -7 -7 -15 -6 -23 3 -26 12 -5 13 11
1 20 -2 20 -7z m305 0 c-9 -14 8 -12 24 3 9 8 12 8 7 0 -3 -6 -1 -14 4 -16 6
-3 5 -4 -2 -3 -7 2 -21 -1 -32 -6 -13 -7 -16 -7 -12 1 4 6 1 11 -6 11 -9 0 -9
3 2 10 19 12 23 12 15 0z m-211 -14 c3 2 4 1 1 -3 -10 -12 -44 -10 -49 3 -4
10 1 11 18 4 13 -5 27 -7 30 -4z m96 4 c0 -5 -5 -10 -11 -10 -5 0 -7 5 -4 10
3 6 8 10 11 10 2 0 4 -4 4 -10z m-616 -30 c-6 -6 -10 -3 -10 10 0 13 4 16 10
10 7 -7 7 -13 0 -20z m696 20 c0 -5 -2 -10 -4 -10 -3 0 -8 5 -11 10 -3 6 -1
10 4 10 6 0 11 -4 11 -10z m-720 -10 c0 -5 -2 -10 -4 -10 -3 0 -8 5 -11 10 -3
6 -1 10 4 10 6 0 11 -4 11 -10z m-300 -130 c0 -5 -5 -10 -11 -10 -5 0 -7 5 -4
10 3 6 8 10 11 10 2 0 4 -4 4 -10z m-180 -104 c0 -3 -4 -8 -10 -11 -5 -3 -10
-1 -10 4 0 6 5 11 10 11 6 0 10 -2 10 -4z m-265 -65 c3 -5 2 -12 -3 -15 -5 -3
-9 1 -9 9 0 17 3 19 12 6z m-341 -25 c7 3 16 -1 19 -9 3 -9 0 -14 -6 -13 -22
4 -57 27 -57 37 0 6 7 4 15 -5 9 -8 22 -13 29 -10z m406 20 c0 -2 -7 -9 -15
-16 -13 -11 -14 -10 -9 4 5 14 24 23 24 12z"/>
<path d="M2470 780 c0 -5 5 -10 11 -10 5 0 7 5 4 10 -3 6 -8 10 -11 10 -2 0
-4 -4 -4 -10z"/>
<path d="M2433 715 c0 -8 4 -12 9 -9 5 3 6 10 3 15 -9 13 -12 11 -12 -6z"/>
<path d="M2350 701 c0 -6 4 -13 10 -16 6 -3 7 1 4 9 -7 18 -14 21 -14 7z"/>
<path d="M1610 659 c0 -5 5 -7 10 -4 6 3 10 8 10 11 0 2 -4 4 -10 4 -5 0 -10
-5 -10 -11z"/>
<path d="M2151 644 c0 -11 3 -14 6 -6 3 7 2 16 -1 19 -3 4 -6 -2 -5 -13z"/>
<path d="M1570 639 c0 -5 5 -7 10 -4 6 3 10 8 10 11 0 2 -4 4 -10 4 -5 0 -10
-5 -10 -11z"/>
<path d="M1475 600 c-3 -5 -1 -10 4 -10 6 0 11 5 11 10 0 6 -2 10 -4 10 -3 0
-8 -4 -11 -10z"/>
<path d="M1406 563 c-6 -14 -5 -15 5 -6 7 7 10 15 7 18 -3 3 -9 -2 -12 -12z"/>
<path d="M1191 496 c-8 -9 -11 -19 -7 -23 3 -3 6 -1 6 6 0 7 7 11 15 8 8 -4
17 -1 21 5 4 6 3 8 -4 4 -5 -3 -12 -1 -14 5 -2 7 -9 5 -17 -5z"/>
<path d="M1135 469 c-4 -5 -10 -7 -15 -4 -5 3 -12 0 -15 -6 -5 -7 3 -9 25 -5
38 6 46 12 26 19 -9 4 -18 2 -21 -4z"/>
<path d="M1065 419 c-3 -4 2 -6 10 -5 21 3 28 13 10 13 -9 0 -18 -4 -20 -8z"/>
<path d="M875 360 c-3 -5 -1 -10 4 -10 6 0 11 5 11 10 0 6 -2 10 -4 10 -3 0
-8 -4 -11 -10z"/>
<path d="M655 280 c-3 -6 1 -7 9 -4 18 7 21 14 7 14 -6 0 -13 -4 -16 -10z"/>
</g>
</svg>
